<svg xmlns="http://www.w3.org/2000/svg" viewBox="0 0 96 96" role="img" aria-label="ZMovie">
  <defs>
    <linearGradient id="bg" x1="14" x2="82" y1="8" y2="88" gradientUnits="userSpaceOnUse">
      <stop stop-color="#2B3040"/>
      <stop offset="1" stop-color="#0D0F17"/>
    </linearGradient>
    <linearGradient id="gold" x1="18" x2="78" y1="16" y2="80" gradientUnits="userSpaceOnUse">
      <stop stop-color="#FFF0A8"/>
      <stop offset=".46" stop-color="#FFE182"/>
      <stop offset="1" stop-color="#FFB84D"/>
    </linearGradient>
  </defs>
  <rect width="96" height="96" rx="25" fill="url(#bg)"/>
  <path fill="#181B27" d="M14 25c0-6.1 4.9-11 11-11h46c6.1 0 11 4.9 11 11v46c0 6.1-4.9 11-11 11H25c-6.1 0-11-4.9-11-11V25Z"/>
  <path fill="url(#gold)" d="M28 23h42c2.2 0 3.5 2.5 2.2 4.3L47.4 62H68c2.2 0 3.5 2.5 2.2 4.3L62.9 77H25.4c-2.2 0-3.5-2.5-2.2-4.3L48 38H28c-2.2 0-3.5-2.5-2.2-4.3L28 23Z"/>
  <path fill="#11131D" d="M45 42.9 61.5 52 45 61.1V42.9Z"/>
  <path fill="#11131D" fill-opacity=".72" d="M31 27h5v7h-5v-7Zm15 0h5v7h-5v-7Zm15 0h5v7h-5v-7ZM30 66h5v7h-5v-7Zm15 0h5v7h-5v-7Zm15 0h5v7h-5v-7Z"/>
</svg>
